<svg width="811" height="178" viewBox="0 0 811 178" fill="none" xmlns="http://www.w3.org/2000/svg">
    <path fill-rule="evenodd" clip-rule="evenodd" d="M22.6855 1H305.118V0H22.6855V1ZM788.315 176.941H505.882V177.941H788.315V176.941ZM809.5 173.941C808.672 173.941 808 174.612 808 175.441C808 176.269 808.672 176.941 809.5 176.941C810.328 176.941 811 176.269 811 175.441C811 174.612 810.328 173.941 809.5 173.941ZM811 10V159H810V10H811ZM3 2.5C3 3.32843 2.32843 4 1.5 4C0.671573 4 0 3.32843 0 2.5C0 1.67157 0.671573 1 1.5 1C2.32843 1 3 1.67157 3 2.5ZM0 19V168H1V19H0Z" fill="#D6E1F0"/>
</svg>