<svg width="16" height="15" viewBox="0 0 16 15" fill="none" xmlns="http://www.w3.org/2000/svg">
    <path opacity="0.8" fill-rule="evenodd" clip-rule="evenodd" d="M2 0C1.17386 0 0.5 0.673858 0.5 1.5C0.5 2.32614 1.17386 3 2 3C2.82614 3 3.5 2.32614 3.5 1.5C3.5 0.673858 2.82614 0 2 0ZM8 0C7.17386 0 6.5 0.673858 6.5 1.5C6.5 2.32614 7.17386 3 8 3C8.82614 3 9.5 2.32614 9.5 1.5C9.5 0.673858 8.82614 0 8 0ZM14 0C13.1739 0 12.5 0.673858 12.5 1.5C12.5 2.32614 13.1739 3 14 3C14.8261 3 15.5 2.32614 15.5 1.5C15.5 0.673858 14.8261 0 14 0ZM2 6C1.17386 6 0.5 6.67386 0.5 7.5C0.5 8.32614 1.17386 9 2 9C2.82614 9 3.5 8.32614 3.5 7.5C3.5 6.67386 2.82614 6 2 6ZM8 6C7.17386 6 6.5 6.67386 6.5 7.5C6.5 8.32614 7.17386 9 8 9C8.82614 9 9.5 8.32614 9.5 7.5C9.5 6.67386 8.82614 6 8 6ZM14 6C13.1739 6 12.5 6.67386 12.5 7.5C12.5 8.32614 13.1739 9 14 9C14.8261 9 15.5 8.32614 15.5 7.5C15.5 6.67386 14.8261 6 14 6ZM2 12C1.17386 12 0.5 12.6739 0.5 13.5C0.5 14.3261 1.17386 15 2 15C2.82614 15 3.5 14.3261 3.5 13.5C3.5 12.6739 2.82614 12 2 12ZM8 12C7.17386 12 6.5 12.6739 6.5 13.5C6.5 14.3261 7.17386 15 8 15C8.82614 15 9.5 14.3261 9.5 13.5C9.5 12.6739 8.82614 12 8 12ZM14 12C13.1739 12 12.5 12.6739 12.5 13.5C12.5 14.3261 13.1739 15 14 15C14.8261 15 15.5 14.3261 15.5 13.5C15.5 12.6739 14.8261 12 14 12Z" fill="white"/>
</svg>