<svg width="16" height="13" viewBox="0 0 16 13" fill="none" xmlns="http://www.w3.org/2000/svg">
    <path fill-rule="evenodd" clip-rule="evenodd" d="M3.36601 5.14682C2.34818 4.4415 1.73808 4.01731 1.53568 3.87449C1.16669 3.62453 0.818377 3.28075 0.491076 2.84324C0.163744 2.40577 0 1.99941 0 1.62441C0 1.16017 0.123496 0.773263 0.370489 0.463725C0.617512 0.15425 0.970207 -0.000488281 1.42851 -0.000488281H14.5714C14.9581 -0.000488281 15.293 0.139332 15.5758 0.41913C15.8585 0.698865 16 1.0352 16 1.42812C16 1.8983 15.8542 2.34772 15.5624 2.77613C15.2707 3.20472 14.9077 3.57086 14.4732 3.8743C12.2352 5.42794 10.8422 6.39523 10.2947 6.77611C10.2352 6.81785 10.1086 6.90848 9.91522 7.04849C9.72171 7.18847 9.56109 7.30158 9.43309 7.38786C9.30509 7.47408 9.15035 7.57075 8.96885 7.67798C8.78743 7.7849 8.61612 7.86549 8.45547 7.91878C8.29473 7.97248 8.14587 7.99912 8.00899 7.99912H7.99998H7.99101C7.85413 7.99912 7.70533 7.97251 7.54459 7.91878C7.38388 7.86549 7.21272 7.785 7.03115 7.67798C6.84952 7.57087 6.69478 7.47411 6.56678 7.38786C6.43888 7.30158 6.27814 7.18847 6.08468 7.04849C5.89126 6.90861 5.76482 6.81785 5.70531 6.77611C5.16364 6.39523 4.38388 5.85215 3.36601 5.14682ZM10.6607 7.90974C11.6725 7.17752 13.1548 6.15065 15.107 4.82934C15.4465 4.59727 15.744 4.33817 16 4.05259V11.1417C16 11.5348 15.8602 11.8708 15.5804 12.1507C15.3006 12.4305 14.9643 12.5704 14.5715 12.5704H1.4286C1.03572 12.5704 0.699353 12.4305 0.419618 12.1507C0.139821 11.8709 0 11.5348 0 11.1417V4.05259C0.26191 4.34421 0.562504 4.6033 0.901876 4.82934C3.0566 6.29357 4.53574 7.3205 5.33936 7.90974C5.67861 8.15965 5.95393 8.35472 6.16518 8.49451C6.37649 8.6344 6.65779 8.77725 7.00892 8.92301C7.36005 9.069 7.68747 9.14177 7.99104 9.14177H8.00002H8.00912C8.31274 9.14177 8.63998 9.069 8.99111 8.92301C9.34237 8.77725 9.62348 8.6344 9.83485 8.49451C10.0462 8.35472 10.3215 8.15965 10.6607 7.90974Z" fill="white"/>
</svg>