<svg width="225" height="58" viewBox="0 0 225 58" fill="none" xmlns="http://www.w3.org/2000/svg">
    <path d="M4.761 17H12.236V15.896L10.419 15.62C9.775 15.505 9.637 15.321 9.637 14.562V2.165H10.925C13.156 2.165 13.754 2.74 14.743 5.799L16.008 5.5L15.157 0.899999H1.863L0.966 5.5L2.208 5.799C3.22 2.74 3.841 2.165 6.095 2.165H7.36V14.47C7.36 15.252 7.176 15.528 6.601 15.62L4.761 15.896V17ZM30.7115 17.322C31.6315 17.322 32.3905 17.023 33.0345 16.402L32.8045 15.574C32.3215 15.735 32.0455 15.781 31.7695 15.781C30.5045 15.781 30.1595 14.838 29.4925 13.274L28.6875 11.388C28.1815 10.192 27.5375 9.617 26.3645 9.295V9.226C28.6415 8.812 30.3665 6.995 30.3665 5.017C30.3665 2.326 28.2275 0.899999 24.1795 0.899999H18.4065V2.004L19.6945 2.211C20.3155 2.326 20.4535 2.51 20.4535 3.292V14.516C20.4535 15.367 20.3155 15.597 19.7405 15.689L18.4065 15.896V17H25.1915V15.896L23.5815 15.712C22.9145 15.62 22.7305 15.39 22.7305 14.562V9.686C23.0295 9.64 23.3515 9.617 23.7655 9.617C25.0995 9.617 25.4905 9.962 26.2265 11.733L27.3305 14.378C28.2505 16.632 29.0555 17.322 30.7115 17.322ZM24.0185 8.513C23.6965 8.513 23.3055 8.49 22.7305 8.467V2.142H24.0185C26.7095 2.142 27.9055 3.062 27.9055 5.155C27.9055 7.294 26.4795 8.513 24.0185 8.513ZM41.6442 17.322C46.1982 17.322 49.2802 13.78 49.2802 8.536C49.2802 3.752 46.3132 0.577999 41.8512 0.577999C37.1132 0.577999 34.1002 3.959 34.1002 9.272C34.1002 14.102 37.1132 17.322 41.6442 17.322ZM41.9202 15.781C38.6082 15.781 36.5382 13.09 36.5382 8.789C36.5382 4.488 38.3552 2.05 41.5522 2.05C44.8412 2.05 46.7732 4.626 46.7732 8.973C46.7732 13.412 45.0942 15.781 41.9202 15.781ZM51.8508 17H58.6358V15.896L57.0258 15.712C56.3588 15.643 56.1748 15.39 56.1748 14.562V9.985H58.1758C59.8318 9.985 59.9928 10.169 60.3148 12.4L61.3728 12.216V6.535L60.3148 6.673C59.9468 8.49 59.8778 8.559 58.1758 8.559H56.1748V2.142H58.5668C60.7518 2.142 61.3498 2.648 62.3848 5.431L63.5808 5.017L62.7528 0.899999H51.8508V2.004L53.1388 2.211C53.7598 2.303 53.8978 2.51 53.8978 3.292V14.516C53.8978 15.367 53.7598 15.597 53.1848 15.689L51.8508 15.896V17ZM66.0012 17H72.5562V15.896L71.1532 15.689C70.5552 15.574 70.4172 15.39 70.4172 14.608V3.384C70.4172 2.556 70.5552 2.303 71.1072 2.211L72.5562 2.004V0.899999H66.0012V2.004L67.3812 2.211C68.0022 2.326 68.1402 2.51 68.1402 3.292V14.516C68.1402 15.367 68.0022 15.597 67.4272 15.689L66.0012 15.896V17ZM75.4353 17H81.0933V15.896L79.8053 15.689C79.1613 15.574 79.0233 15.367 79.0693 14.608L79.7593 2.855V2.671L83.8993 14.401H86.1993L90.5003 2.694V2.878L91.1903 14.516C91.1903 15.367 91.0523 15.597 90.4773 15.689L89.0513 15.896V17H95.6063V15.896L94.2033 15.689C93.6053 15.574 93.4673 15.39 93.4673 14.608L92.7773 3.384C92.7773 2.533 92.9153 2.28 93.4673 2.211L94.9163 2.004V0.899999H89.6033L85.4863 12.331L85.3943 12.561L81.4613 0.899999H76.1253V2.004L77.4133 2.211C78.0113 2.326 78.1493 2.51 78.1493 3.292L77.4593 14.516C77.4133 15.206 77.3903 15.597 76.7463 15.689L75.4353 15.896V17ZM105.298 17.322C109.852 17.322 112.934 13.78 112.934 8.536C112.934 3.752 109.967 0.577999 105.505 0.577999C100.767 0.577999 97.7545 3.959 97.7545 9.272C97.7545 14.102 100.767 17.322 105.298 17.322ZM105.574 15.781C102.262 15.781 100.192 13.09 100.192 8.789C100.192 4.488 102.009 2.05 105.206 2.05C108.495 2.05 110.427 4.626 110.427 8.973C110.427 13.412 108.748 15.781 105.574 15.781ZM120.605 17H123.043L127.712 3.43C128.08 2.464 128.218 2.303 128.747 2.188L129.874 2.004V0.899999H124.423V1.981L125.55 2.234C126.194 2.372 126.332 2.671 126.056 3.453L122.192 15.022H122.1L118.259 3.315C117.96 2.533 118.075 2.257 118.696 2.165L119.961 2.004V0.899999H113.889V2.073L114.809 2.257C115.407 2.395 115.522 2.51 115.844 3.407L120.605 17ZM127.968 17H133.534V15.919L132.223 15.735C131.556 15.597 131.418 15.275 131.694 14.493L132.66 11.687H138.824L139.813 14.585C140.112 15.367 139.997 15.643 139.376 15.735L138.042 15.896V17H144.183V15.85L143.24 15.666C142.596 15.505 142.527 15.298 142.228 14.493L137.421 0.899999H134.983L130.13 14.47C129.762 15.436 129.624 15.597 129.072 15.712L127.968 15.896V17ZM133.12 10.376L135.742 2.809H135.834L138.387 10.376H133.12ZM154.04 17H160.595V15.896L159.192 15.689C158.594 15.574 158.456 15.39 158.456 14.608V10.284L162.665 3.453C163.263 2.487 163.493 2.257 163.976 2.188L165.103 2.004V0.899999H159.56V1.981L160.618 2.234C161.331 2.395 161.446 2.763 161.009 3.407L157.835 8.766H157.72L154.362 3.315C153.925 2.671 154.086 2.234 154.799 2.165L156.064 2.004V0.899999H149.647V2.073L150.498 2.234C151.096 2.349 151.372 2.579 151.878 3.407L156.179 10.261V14.516C156.179 15.367 156.041 15.597 155.466 15.689L154.04 15.896V17ZM174.896 17.322C179.082 17.322 181.175 14.976 181.175 10.307V3.384C181.175 2.533 181.313 2.303 181.888 2.211L183.199 2.004V0.899999H177.541V2.004L178.806 2.211C179.427 2.326 179.565 2.51 179.565 3.292V10.583C179.565 14.079 178.185 15.712 175.218 15.712C172.251 15.712 171.055 14.263 171.055 10.744V3.384C171.055 2.556 171.193 2.303 171.745 2.211L173.079 2.004V0.899999H166.731V2.004L168.019 2.211C168.64 2.326 168.778 2.51 168.778 3.292V10.905C168.778 15.252 170.756 17.322 174.896 17.322ZM185.651 17H196.921L197.496 12.078H196.231C195.311 15.091 194.667 15.735 192.574 15.735H189.975V3.292C189.975 2.51 190.113 2.326 190.711 2.211L192.229 2.004V0.899999H185.651V2.004L186.939 2.211C187.56 2.326 187.698 2.51 187.698 3.292V14.516C187.698 15.367 187.56 15.597 186.985 15.689L185.651 15.896V17ZM200.295 17H206.85V15.896L205.447 15.689C204.849 15.574 204.711 15.39 204.711 14.608V3.384C204.711 2.556 204.849 2.303 205.401 2.211L206.85 2.004V0.899999H200.295V2.004L201.675 2.211C202.296 2.326 202.434 2.51 202.434 3.292V14.516C202.434 15.367 202.296 15.597 201.721 15.689L200.295 15.896V17ZM208.625 17H214.191V15.919L212.88 15.735C212.213 15.597 212.075 15.275 212.351 14.493L213.317 11.687H219.481L220.47 14.585C220.769 15.367 220.654 15.643 220.033 15.735L218.699 15.896V17H224.84V15.85L223.897 15.666C223.253 15.505 223.184 15.298 222.885 14.493L218.078 0.899999H215.64L210.787 14.47C210.419 15.436 210.281 15.597 209.729 15.712L208.625 15.896V17ZM213.777 10.376L216.399 2.809H216.491L219.044 10.376H213.777Z" fill="white"/>
    <line x1="121.25" y1="30.5" x2="206.25" y2="30.5" stroke="white"/>
    <circle cx="113.25" cy="30" r="1" fill="white"/>
    <line x1="19.75" y1="30.5" x2="104.75" y2="30.5" stroke="white"/>
    <path d="M53.844 54H55.604L57.38 47.408H57.46L59.204 54H60.884L62.82 47.632C63.012 47.008 63.14 46.848 63.556 46.768L64.148 46.64V45.888H60.852L60.708 46.624L61.396 46.784C61.844 46.896 61.924 47.072 61.764 47.648L60.372 52.64H60.292L58.5 45.888H56.788L54.932 52.672H54.852L53.444 47.536C53.3 46.928 53.348 46.8 53.764 46.736L54.532 46.624V45.888H50.772L50.612 46.672L51.172 46.8C51.62 46.912 51.716 47.04 51.876 47.616L53.844 54ZM68.5913 54.224C69.7913 54.224 71.0073 53.616 71.7273 52.64L71.1673 52.08C70.5753 52.688 69.7753 53.04 68.9593 53.04C67.4073 53.04 66.4473 51.936 66.3832 50.064H71.3913C71.5353 49.488 71.6153 48.944 71.6153 48.496C71.6153 46.8 70.4313 45.664 68.6713 45.664C66.3193 45.664 64.7673 47.408 64.7673 50.048C64.7673 52.592 66.2553 54.224 68.5913 54.224ZM66.3832 49.168C66.5433 47.44 67.2793 46.512 68.4953 46.512C69.5513 46.512 70.1113 47.184 70.1113 48.432C70.1113 48.72 70.0953 48.96 70.0633 49.168H66.3832ZM76.3441 54.224C77.4161 54.224 78.2961 53.776 79.0001 52.88H79.0481L79.2721 54.144L81.7361 54.048V53.296L80.9521 53.152C80.5201 53.072 80.4241 52.944 80.4241 52.432V41.92L80.2481 41.744L77.6401 41.824L77.5441 42.624L78.2481 42.736C78.8401 42.832 78.9361 42.96 78.9361 43.696V46.192C78.4401 45.872 77.6721 45.664 76.9681 45.664C74.5681 45.664 73.0641 47.408 73.0641 50.192C73.0641 52.736 74.2801 54.224 76.3441 54.224ZM76.8081 53.072C75.4161 53.072 74.6481 52 74.6481 50.032C74.6481 47.856 75.4161 46.736 76.9361 46.736C77.6881 46.736 78.4081 46.976 78.9361 47.392V50.608C78.9361 52.064 78.0721 53.072 76.8081 53.072ZM86.141 54.224C87.213 54.224 88.093 53.776 88.797 52.88H88.845L89.069 54.144L91.533 54.048V53.296L90.749 53.152C90.317 53.072 90.221 52.944 90.221 52.432V41.92L90.045 41.744L87.437 41.824L87.341 42.624L88.045 42.736C88.637 42.832 88.733 42.96 88.733 43.696V46.192C88.237 45.872 87.469 45.664 86.765 45.664C84.365 45.664 82.861 47.408 82.861 50.192C82.861 52.736 84.077 54.224 86.141 54.224ZM86.605 53.072C85.213 53.072 84.445 52 84.445 50.032C84.445 47.856 85.213 46.736 86.733 46.736C87.485 46.736 88.205 46.976 88.733 47.392V50.608C88.733 52.064 87.869 53.072 86.605 53.072ZM94.4819 44.08C95.1219 44.08 95.5699 43.632 95.5699 43.008C95.5699 42.384 95.1219 41.952 94.4819 41.952C93.8579 41.952 93.4099 42.4 93.4099 43.024C93.4099 43.648 93.8579 44.08 94.4819 44.08ZM92.5619 54H96.8659V53.232L95.9699 53.072C95.5699 53.008 95.4579 52.848 95.4579 52.32V45.92L95.2659 45.84L92.7379 45.968L92.6259 46.768L93.3939 46.88C93.8739 46.944 93.9699 47.104 93.9699 47.888V52.256C93.9699 52.864 93.8899 53.008 93.4739 53.072L92.5619 53.216V54ZM98.13 54H102.05V53.264L101.202 53.088C100.882 53.024 100.802 52.896 100.802 52.4V49.04C100.802 47.696 101.666 46.816 103.01 46.816C104.194 46.816 104.61 47.36 104.61 48.864V52.464C104.61 52.944 104.53 53.056 104.13 53.136L103.426 53.264V54H107.346V53.248L106.594 53.12C106.178 53.056 106.098 52.944 106.098 52.464V48.4C106.098 46.624 105.17 45.664 103.474 45.664C102.338 45.664 101.25 46.304 100.674 47.312H100.626L100.514 45.888L100.322 45.776L98.098 45.952L97.986 46.72L98.77 46.832C99.234 46.896 99.314 47.056 99.314 47.824V52.336C99.314 52.896 99.234 53.04 98.898 53.104L98.13 53.248V54ZM111.908 57.664C114.596 57.664 116.148 56.592 116.148 54.736C116.148 53.312 115.268 52.672 113.316 52.672H111.268C110.468 52.672 110.148 52.48 110.148 52.016C110.148 51.728 110.276 51.488 110.66 51.056C110.916 51.152 111.476 51.216 111.956 51.216C113.924 51.216 115.188 50.128 115.188 48.432C115.188 47.744 114.98 47.152 114.58 46.672C114.724 46.256 114.852 45.968 115.044 45.664L115.204 46C115.348 46.288 115.556 46.432 115.844 46.432C116.324 46.432 116.756 46 116.756 45.536C116.756 45.04 116.308 44.688 115.684 44.688C114.964 44.688 114.356 45.232 114.02 46.192C113.46 45.856 112.708 45.664 111.94 45.664C109.94 45.664 108.628 46.784 108.628 48.512C108.628 49.568 109.028 50.304 109.812 50.704V50.752C108.996 51.6 108.772 52 108.772 52.576C108.772 53.12 109.172 53.648 109.7 53.808V53.872C108.692 54.336 108.244 54.896 108.244 55.696C108.244 57.008 109.46 57.664 111.908 57.664ZM111.924 50.368C110.836 50.368 110.148 49.616 110.148 48.432C110.148 47.152 110.724 46.48 111.828 46.48C112.996 46.48 113.668 47.216 113.668 48.48C113.668 49.68 113.044 50.368 111.924 50.368ZM112.036 56.656C110.372 56.656 109.716 56.32 109.716 55.456C109.716 54.928 109.956 54.496 110.452 54.128H113.14C114.132 54.128 114.628 54.464 114.628 55.12C114.628 56.08 113.668 56.656 112.036 56.656ZM123.985 54.224C125.057 54.224 125.937 53.776 126.641 52.88H126.689L126.913 54.144L129.377 54.048V53.296L128.593 53.152C128.161 53.072 128.065 52.944 128.065 52.432V41.92L127.889 41.744L125.281 41.824L125.185 42.624L125.889 42.736C126.481 42.832 126.577 42.96 126.577 43.696V46.192C126.081 45.872 125.313 45.664 124.609 45.664C122.209 45.664 120.705 47.408 120.705 50.192C120.705 52.736 121.921 54.224 123.985 54.224ZM124.449 53.072C123.057 53.072 122.289 52 122.289 50.032C122.289 47.856 123.057 46.736 124.577 46.736C125.329 46.736 126.049 46.976 126.577 47.392V50.608C126.577 52.064 125.713 53.072 124.449 53.072ZM130.646 54H135.094V53.248L133.718 53.04C133.382 52.976 133.318 52.88 133.318 52.352V49.104C133.318 47.648 134.566 46.352 135.51 46.832C135.302 47.248 135.206 47.52 135.206 47.76C135.206 48.208 135.558 48.464 136.15 48.464C136.854 48.464 137.222 48.032 137.222 47.2C137.222 46.256 136.582 45.664 135.574 45.664C134.63 45.664 133.814 46.24 133.19 47.328H133.142L132.966 45.888L132.774 45.776L130.614 45.952L130.502 46.736L131.286 46.848C131.75 46.928 131.83 47.072 131.83 47.84V52.32C131.83 52.88 131.75 53.024 131.414 53.088L130.646 53.232V54ZM141.732 54.224C142.932 54.224 144.148 53.616 144.868 52.64L144.308 52.08C143.716 52.688 142.916 53.04 142.1 53.04C140.548 53.04 139.588 51.936 139.524 50.064H144.532C144.676 49.488 144.756 48.944 144.756 48.496C144.756 46.8 143.572 45.664 141.812 45.664C139.46 45.664 137.908 47.408 137.908 50.048C137.908 52.592 139.396 54.224 141.732 54.224ZM139.524 49.168C139.684 47.44 140.42 46.512 141.636 46.512C142.692 46.512 143.252 47.184 143.252 48.432C143.252 48.72 143.236 48.96 143.204 49.168H139.524ZM146.509 54.224H147.181L147.357 53.68C147.805 54.032 148.525 54.224 149.357 54.224C151.037 54.224 152.221 53.136 152.221 51.568C152.221 50.288 151.549 49.648 149.629 49.104C148.205 48.688 147.789 48.368 147.789 47.696C147.789 46.944 148.301 46.528 149.229 46.528C150.125 46.528 150.877 47.2 151.085 48.192L151.997 48.272L151.789 45.664H151.085L150.957 46.208C150.573 45.888 149.853 45.664 149.197 45.664C147.517 45.664 146.445 46.608 146.445 48.064C146.445 49.328 147.133 49.968 149.021 50.496C150.461 50.896 150.893 51.232 150.893 51.92C150.893 52.752 150.317 53.264 149.389 53.264C148.349 53.264 147.581 52.624 147.149 51.408L146.253 51.472L146.509 54.224ZM153.743 54.224H154.415L154.591 53.68C155.039 54.032 155.759 54.224 156.591 54.224C158.271 54.224 159.455 53.136 159.455 51.568C159.455 50.288 158.783 49.648 156.863 49.104C155.439 48.688 155.023 48.368 155.023 47.696C155.023 46.944 155.535 46.528 156.463 46.528C157.359 46.528 158.111 47.2 158.319 48.192L159.231 48.272L159.023 45.664H158.319L158.191 46.208C157.807 45.888 157.087 45.664 156.431 45.664C154.751 45.664 153.679 46.608 153.679 48.064C153.679 49.328 154.367 49.968 156.255 50.496C157.695 50.896 158.127 51.232 158.127 51.92C158.127 52.752 157.551 53.264 156.623 53.264C155.583 53.264 154.815 52.624 154.383 51.408L153.487 51.472L153.743 54.224ZM164.498 54.224C165.698 54.224 166.914 53.616 167.634 52.64L167.074 52.08C166.482 52.688 165.682 53.04 164.866 53.04C163.314 53.04 162.354 51.936 162.289 50.064H167.298C167.442 49.488 167.522 48.944 167.522 48.496C167.522 46.8 166.338 45.664 164.578 45.664C162.226 45.664 160.674 47.408 160.674 50.048C160.674 52.592 162.162 54.224 164.498 54.224ZM162.289 49.168C162.45 47.44 163.186 46.512 164.402 46.512C165.458 46.512 166.018 47.184 166.018 48.432C166.018 48.72 166.002 48.96 165.97 49.168H162.289ZM169.274 54.224H169.946L170.122 53.68C170.57 54.032 171.29 54.224 172.122 54.224C173.802 54.224 174.986 53.136 174.986 51.568C174.986 50.288 174.314 49.648 172.394 49.104C170.97 48.688 170.554 48.368 170.554 47.696C170.554 46.944 171.066 46.528 171.994 46.528C172.89 46.528 173.642 47.2 173.85 48.192L174.762 48.272L174.554 45.664H173.85L173.722 46.208C173.338 45.888 172.618 45.664 171.962 45.664C170.282 45.664 169.21 46.608 169.21 48.064C169.21 49.328 169.898 49.968 171.786 50.496C173.226 50.896 173.658 51.232 173.658 51.92C173.658 52.752 173.082 53.264 172.154 53.264C171.114 53.264 170.346 52.624 169.914 51.408L169.018 51.472L169.274 54.224Z" fill="white"/>
</svg>