<svg width="60" height="48" viewBox="0 0 60 48" fill="none" xmlns="http://www.w3.org/2000/svg">
    <path fill-rule="evenodd" clip-rule="evenodd" d="M45.959 27.1168C44.5962 27.1168 43.1952 26.9125 41.7942 26.5099C38.3788 25.5289 35.5535 23.3126 33.838 20.272C32.1041 17.1969 31.6739 13.6334 32.6256 10.2355C34.2187 4.55156 39.4558 0.581242 45.3618 0.581242C45.381 0.581242 45.3996 0.581802 45.4188 0.582386L45.4202 0.582428C50.2068 0.768856 53.9265 2.6349 56.4762 6.12933C61.0324 12.3743 60.49 22.2959 58.6403 28.8953C55.4892 40.1439 48.0218 48 40.4815 48C40.0131 48 39.5405 47.9678 39.0769 47.9047C38.6503 47.8463 38.2696 47.6063 38.0327 47.2466C37.7958 46.8868 37.7272 46.4431 37.843 46.0285L39.2159 41.1267C39.3747 40.5614 39.8514 40.1415 40.4332 40.0552C46.715 39.1231 49.8685 30.8459 51.1812 26.0489C49.8196 26.6367 48.0635 27.1168 45.959 27.1168ZM9.66361 26.5099C6.24821 25.5289 3.42292 23.3126 1.70746 20.2715C-0.0259094 17.1969 -0.456707 13.6328 0.493805 10.2349C2.08695 4.55097 7.32462 0.580647 13.23 0.580647C13.2497 0.580647 13.2683 0.581211 13.2874 0.581787L13.2891 0.581841C18.0751 0.767666 21.7954 2.63431 24.3444 6.12814C28.9012 12.3743 28.3589 22.2959 26.5097 28.8953C23.3581 40.1439 15.8906 48 8.35032 48C7.88133 48 7.40875 47.9678 6.94572 47.9047C6.51851 47.8463 6.13782 47.6063 5.90154 47.2466C5.66465 46.8868 5.59604 46.4431 5.71179 46.0285L7.08475 41.1267C7.24407 40.5614 7.72023 40.1415 8.30199 40.0552C14.5845 39.1231 17.7379 30.8459 19.0506 26.0489C17.689 26.6367 15.9324 27.1168 13.8279 27.1168C12.4656 27.1168 11.0646 26.9125 9.66361 26.5099Z" fill="#D6E1F0"/>
</svg>