<svg width="19" height="20" viewBox="0 0 19 20" fill="none" xmlns="http://www.w3.org/2000/svg">
    <path fill-rule="evenodd" clip-rule="evenodd" d="M13.9595 0.999512H5.04074C2.5368 0.999512 0.5 3.0366 0.5 5.54025V14.459C0.5 16.963 2.5368 18.9995 5.04074 18.9995H13.9595C16.4635 18.9995 18.5 16.963 18.5 14.459V5.54025C18.5 3.0366 16.4635 0.999512 13.9595 0.999512ZM16.5413 14.459C16.5413 15.8828 15.383 17.0411 13.9595 17.0411H5.04074C3.6173 17.0411 2.45895 15.8828 2.45895 14.459V5.54025C2.45895 4.11681 3.6173 2.95874 5.04074 2.95874H13.9595C15.383 2.95874 16.5413 4.11681 16.5413 5.54025V14.459ZM14.2848 6.32289C13.6798 6.32289 13.1876 5.83092 13.1876 5.22594C13.1876 4.62123 13.6798 4.12926 14.2848 4.12926C14.8898 4.12926 15.3818 4.62123 15.3818 5.22594C15.3818 5.83092 14.8898 6.32289 14.2848 6.32289ZM4.86426 9.99939C4.86426 7.44327 6.94403 5.36377 9.49988 5.36377C12.0563 5.36377 14.1361 7.44355 14.1361 9.99939C14.1361 12.5555 12.0563 14.6353 9.49988 14.6353C6.94403 14.6353 4.86426 12.5555 4.86426 9.99939ZM6.82293 9.99939C6.82293 11.4756 8.02453 12.6769 9.49988 12.6769C10.9761 12.6769 12.1768 11.4756 12.1768 9.99939C12.1768 8.52376 10.9761 7.323 9.49988 7.323C8.02453 7.323 6.82293 8.52376 6.82293 9.99939Z" fill="#33A4D5" stroke="white" stroke-width="0.5"/>
</svg>