<svg width="18" height="18" viewBox="0 0 18 18" fill="none" xmlns="http://www.w3.org/2000/svg">
    <path d="M9.00225 -0.000488281H8.99775C4.03538 -0.000488281 0 4.03601 0 8.99951C0 10.9683 0.6345 12.793 1.71337 14.2746L0.59175 17.6181L4.05113 16.5123C5.47425 17.455 7.17188 17.9995 9.00225 17.9995C13.9646 17.9995 18 13.9619 18 8.99951C18 4.03714 13.9646 -0.000488281 9.00225 -0.000488281ZM14.2391 12.7086C14.022 13.3218 13.1602 13.8303 12.4729 13.9788C12.0026 14.0789 11.3884 14.1588 9.32063 13.3015C6.67575 12.2058 4.9725 9.51814 4.83975 9.34376C4.71263 9.16939 3.771 7.92064 3.771 6.62914C3.771 5.33764 4.42688 4.70876 4.69125 4.43876C4.90838 4.21714 5.26725 4.11589 5.6115 4.11589C5.72288 4.11589 5.823 4.12151 5.913 4.12601C6.17737 4.13726 6.31012 4.15301 6.4845 4.57039C6.70162 5.09351 7.23037 6.38501 7.29338 6.51776C7.3575 6.65051 7.42163 6.83051 7.33162 7.00489C7.24725 7.18489 7.173 7.26476 7.04025 7.41776C6.9075 7.57076 6.7815 7.68776 6.64875 7.85201C6.52725 7.99489 6.39 8.14789 6.543 8.41226C6.696 8.67101 7.22475 9.53389 8.00325 10.2269C9.00787 11.1213 9.82237 11.407 10.1137 11.5285C10.3309 11.6185 10.5896 11.5971 10.7483 11.4284C10.9496 11.2113 11.1982 10.8513 11.4514 10.4969C11.6314 10.2426 11.8586 10.2111 12.0971 10.3011C12.3401 10.3855 13.626 11.0211 13.8904 11.1528C14.1547 11.2855 14.3291 11.3485 14.3932 11.4599C14.4562 11.5713 14.4562 12.0944 14.2391 12.7086Z" fill="white"/>
</svg>
