<svg width="18" height="18" viewBox="0 0 18 18" fill="none" xmlns="http://www.w3.org/2000/svg">
    <path d="M9 17.9995C13.9718 17.9995 18 13.9713 18 8.99951C18 4.02776 13.9718 -0.000488281 9 -0.000488281C4.02825 -0.000488281 0 4.02776 0 8.99951C0 13.9713 4.02825 17.9995 9 17.9995ZM4.11825 8.80451L12.7958 5.45876C13.1985 5.31326 13.5503 5.55701 13.4198 6.16601L13.4205 6.16526L11.943 13.126C11.8335 13.6195 11.5402 13.7395 11.13 13.507L8.88 11.8488L7.79475 12.8943C7.67475 13.0143 7.5735 13.1155 7.341 13.1155L7.50075 10.8258L11.6707 7.05851C11.8523 6.89876 11.6302 6.80876 11.391 6.96776L6.23775 10.2123L4.01625 9.51926C3.534 9.36626 3.5235 9.03701 4.11825 8.80451Z" fill="white"/>
</svg>
